PathFileType	4	(X/Y/Z)	C:/Users/beibeiliu/ov580/test_trc/User3\sequence.35_training_dense_right.trc
DataRate	CameraRate	NumFrames	NumMarkers	Units	OrigDataRate	OrigDataStartFrame	OrigNumFrames
120	120	10	19	mm	120	34	267
Frame#	Time	ThumbCMC			ThumbMCP			ThumbIP			ThumbTip			IndexMCP			IndexPIP			IndexTip			MiddleMCP			MiddlePIP			MiddleTip			RingMCP			RingPIP			RingTip			PinkyMCP			PinkyPIP			PinkyTip			BackHand1			BackHand2			BackHand3	
		X0	Y0	Z0	X1	Y1	Z1	X2	Y2	Z2	X3	Y3	Z3	X4	Y4	Z4	X5	Y5	Z5	X6	Y6	Z6	X7	Y7	Z7	X8	Y8	Z8	X9	Y9	Z9	X10	Y10	Z10	X11	Y11	Z11	X12	Y12	Z12	X13	Y13	Z13	X14	Y14	Z14	X15	Y15	Z15	X16	Y16	Z16	X17	Y17	Z17	X18	Y18	Z18	
33	0.275	96.7417	22.3386	13.432	74.6938	37.8414	-6.56721	53.9446	43.7443	-28.6891	33.1746	34.1236	-47.7395	76.2418	7.98768	-61.5861	49.5246	16.3545	-71.4055	23.4273	24.7025	-59.2197	60.7008	-11.6363	-51.9237	31.5779	6.73199	-43.7385	37.2611	12.481	-5.92572	48.8108	-23.2947	-41.5632	28.8113	-9.8204	-25.2468	44.2332	-6.4646	3.00301	48.0354	-38.5294	-30.9241	29.0245	-22.7694	-18.3481	47.9572	-15.5264	9.27945	100.823	-40.5037	-10.511	108.615	-40.0574	16.9952	116.128	-7.01338	1.22399	
34	0.283333	100.765	24.0186	11.9767	81.4256	43.8454	-9.32988	62.1045	48.2646	-25.8273	37.1208	42.9252	-42.8532	71.3922	8.22675	-55.2318	44.7497	28.2542	-66.7258	25.3303	41.0185	-53.0653	54.5319	2.83901	-50.5427	31.0874	20.1204	-38.874	42.3568	23.2086	1.01614	45.1725	-11.5653	-36.332	26.47	4.14415	-20.8853	48.5719	9.60085	7.92805	39.8882	-26.0792	-23.7076	25.1647	-7.40713	-10.2577	45.3875	-2.2317	11.4886	89.525	-37.4503	-4.2778	102.169	-37.1706	23.3196	112.276	-8.55173	-0.706964	
35	0.291667	107.182	24.5395	16.6128	88.7045	46.1575	-9.33718	69.6648	56.9043	-26.8895	44.9908	47.6829	-35.0606	70.5338	16.6591	-55.738	46.7338	31.747	-60.4818	31.6969	54.9974	-47.3689	49.8335	9.48125	-46.5781	31.5513	32.3959	-32.6283	44.3423	32.8925	4.1691	40.1731	-4.52346	-29.8896	28.0726	21.4173	-14.3226	49.9933	17.6756	13.0997	33.6613	-13.1783	-19.4649	23.9821	6.06533	-8.24583	44.9469	7.8973	15.4753	85.9547	-32.5724	-3.02514	97.8597	-36.0136	28.1168	109.739	-12.0909	2.39094	
36	0.3	110.632	24.1627	14.6061	96.9404	46.0293	-3.91774	75.6498	58.4026	-28.5122	51.0658	55.1898	-33.6204	69.4053	17.0961	-50.0205	50.9584	41.1359	-58.853	37.0752	61.1696	-41.9661	52.6031	17.4525	-43.0184	36.6121	40.7182	-29.7192	55.8544	43.1585	7.52118	40.616	4.73245	-26.504	30.8408	30.6279	-9.79104	54.0551	26.9401	13.1857	31.8983	-7.56193	-11.5515	25.1479	20.1278	0.479499	44.6713	20.277	17.9329	79.7551	-27.957	1.90069	92.8988	-33.1937	25.9939	109.81	-11.9826	7.17517	
37	0.308333	114.223	24.2981	21.138	104.066	49.093	-2.2312	83.4096	63.0358	-26.8328	57.6305	61.5488	-32.2245	72.9666	21.6082	-45.8673	52.9741	44.0536	-55.0841	46.3362	72.3679	-39.7473	52.3851	21.2144	-39.3169	39.2509	47.2587	-24.9531	59.3751	45.0369	9.82901	40.8721	10.7642	-24.3785	34.3539	38.7584	-7.33323	56.8396	35.0275	13.6895	29.964	1.41718	-9.28857	27.1989	27.8696	1.59263	50.5322	25.9001	20.1207	77.8559	-26.7387	5.40871	87.9335	-33.3696	29.6018	107.006	-10.2787	4.74112	
38	0.316667	118.279	25.8375	22.9235	108.419	49.9768	-0.0265851	90.5708	65.4617	-23.9132	67.91	69.8281	-30.6539	72.8137	27.5098	-46.2625	56.7228	52.8894	-53.2911	49.7814	76.2145	-32.9909	52.9976	23.6689	-35.5938	44.685	53.6287	-24.6215	66.7097	50.1404	11.0434	42.5299	19.7176	-23.7007	34.0812	41.977	-7.49706	59.984	38.5268	15.418	33.5823	4.78054	-7.78843	25.7379	29.5302	0.860473	48.4946	31.4957	20.1009	77.9409	-21.4546	6.88529	90.5162	-28.5076	29.7805	108.598	-9.70688	6.82793	
39	0.325	122.559	30.2664	23.2722	108.784	51.398	-1.73244	93.0468	65.4885	-21.1982	74.3605	74.4547	-30.0183	80.0037	29.539	-42.2035	60.8232	55.5338	-52.4927	54.8992	79.9394	-29.9925	56.8057	30.7742	-36.6321	46.0436	57.7238	-18.9478	67.2448	48.8418	13.49	41.2252	22.6482	-20.8918	38.1927	46.6314	-4.05544	63.2771	38.4173	17.7582	37.0337	10.0104	-8.6966	29.4266	35.1129	3.54152	52.1109	31.2635	24.4453	76.521	-20.4169	7.42294	89.8788	-27.6741	34.9948	111.193	-6.2996	7.5722	
40	0.333333	121.484	31.3837	21.5122	110.177	53.3885	2.30794	96.888	70.6292	-18.5799	76.8281	77.2678	-31.2447	79.4994	32.111	-42.6062	58.3134	57.4216	-47.5989	55.8211	80.1493	-20.4171	54.815	29.8048	-32.7424	47.1251	58.5053	-20.3634	68.4129	50.9828	14.5848	43.0967	21.0465	-17.1307	38.5526	47.8172	-2.01433	60.5213	39.1696	21.6583	33.0212	11.3694	-4.94319	29.8288	36.7701	8.08182	51.2621	31.4857	28.338	78.8416	-16.8749	6.79903	91.522	-26.8178	33.6816	108.707	-4.38203	11.0766	
41	0.341667	120.603	30.6842	23.3086	112.947	55.3106	4.54924	96.2313	70.0189	-18.2588	77.223	81.2034	-32.2864	80.16	34.4125	-42.8447	59.5535	61.0228	-45.6315	59.5682	80.8394	-21.0863	55.7278	34.8142	-33.48	46.1058	59.1338	-15.5713	68.0517	48.695	16.7873	42.1397	25.5833	-17.3856	39.1438	49.3427	-2.35864	64.0897	37.0046	22.4233	34.3455	11.391	-2.77653	35.0942	39.3984	8.71312	52.1258	31.6399	29.1406	79.2856	-18.6513	8.72314	89.7132	-23.5045	32.7841	112.527	-2.53219	10.8386	
42	0.35	120.112	29.1081	22.5226	112.232	53.5121	5.26343	97.5031	71.7861	-18.4015	78.1108	82.3321	-32.4763	75.1677	34.1677	-41.8163	59.3765	58.6664	-44.4644	58.6976	79.1494	-19.6701	53.8023	33.6183	-31.4253	45.9001	58.4155	-16.6095	69.0593	51.0184	17.0935	46.8036	25.4957	-17.4886	40.6719	49.2899	0.781089	64.1498	41.7698	21.3736	33.9561	12.0902	-2.38255	31.1903	37.8032	9.35604	55.2774	30.9183	30.0153	79.8015	-18.6647	8.68109	89.4608	-25.3664	32.7609	110.832	-2.75707	8.11281	
